<svg id="Layer_1" data-name="Layer 1" xmlns="http://www.w3.org/2000/svg" viewBox="0 0 480 480"><defs><style>.cls-1{fill:#fff;}.cls-2{fill:#0a78ff;}</style></defs><title>SnowTechnologies</title><path class="cls-1" d="M240,479.5A239.5,239.5,0,0,1,70.65,70.65a239.5,239.5,0,1,1,338.7,338.7A237.91,237.91,0,0,1,240,479.5Z"/><path class="cls-1" d="M240,1a239.06,239.06,0,0,1,93,459.22A239.06,239.06,0,0,1,147,19.78,237.55,237.55,0,0,1,240,1m0-1C107.45,0,0,107.45,0,240S107.45,480,240,480,480,372.55,480,240,372.55,0,240,0Z"/><path class="cls-2" d="M173.5,265.88l-45.25-13.25q-26-7.75-38.5-22.63t-12.5-33.37q0-22.5,16.13-35.5t49.37-13H236.5v41.25H138.25q-7,0-9.87,2.75a8.69,8.69,0,0,0-2.88,6.5,8.33,8.33,0,0,0,3.63,7.12q3.62,2.63,11.37,5.13l44,13.25q29.25,8.75,43.75,22t14.5,33.5q0,24.75-17.75,40.37t-54.25,15.63H82.25V294.38h93.5q12,0,15.75-3.5a11.78,11.78,0,0,0,3.75-9q0-6-4.25-9T173.5,265.88Z"/><path class="cls-2" d="M287.75,335.63V189.38H216.5V148.13H409v41.25H337.75V335.63Z"/></svg>